<svg preserveAspectRatio="none" overflow="visible" style="display: block;" width="165.769" height="179.291" viewBox="0 0 165.769 179.291" fill="none" xmlns="http://www.w3.org/2000/svg">
<g id="Group 1707480208">
<g id="Mask group">
<mask id="mask0_0_67" style="mask-type:alpha" maskUnits="userSpaceOnUse" x="14" y="83" width="109" height="97">
<path id="Vector 9065" d="M31.8101 101.831C38.841 86.9255 51.9264 84.2147 57.5902 84.7225L94.8541 83.5507L104.871 93.3348C108.196 96.5819 110.48 100.744 111.433 105.292L121.283 152.283C122.318 157.219 122.441 162.304 121.645 167.284C121.163 170.298 120.349 173.249 119.218 176.083L117.939 179.289H99.4242L101.03 177.775C102.605 176.29 103.408 174.162 103.207 172.006L102.758 167.198C102.724 166.836 102.832 166.474 103.06 166.189L104.804 164.009C105.241 163.463 105.328 162.717 105.029 162.086C104.691 161.373 103.934 160.957 103.151 161.055L92.936 162.332L94.8541 179.289H40.0962C30.9779 179.289 20.7074 177.598 16.6863 169.414C14.2647 164.485 13.9175 159.121 14.9358 154.797C17.631 143.353 24.7791 116.737 31.8101 101.831Z" fill="#66A483"/>
</mask>
<g mask="url(#mask0_0_67)">
<path id="Vector 9087" d="M114.298 180H102.598L106.198 160.2L114.298 180Z" fill="#53866B"/>
</g>
</g>
<path id="Vector 9071" d="M110.003 83.5517C98.2844 81.8643 86.6834 87.7703 82.3477 90.9342L113.034 179.29H146.192C153.984 179.29 160.943 174.091 162.086 166.383C165.515 143.262 161.76 120.681 157.253 107.534C155.652 102.863 152.723 98.7636 148.847 95.7045C133.462 83.5622 116.965 82.403 110.003 83.5517Z" fill="#8EBEA5"/>
<g id="Mask group_2">
<mask id="mask1_0_67" style="mask-type:alpha" maskUnits="userSpaceOnUse" x="82" y="83" width="84" height="95">
<path id="Vector 9046" d="M110.003 83.5506C98.2844 81.8632 86.6834 87.7692 82.3476 90.9331L102.386 177.765H162.383C169.883 150.478 163.428 122.727 157.438 107.458C155.635 102.861 152.723 98.7625 148.847 95.7034C133.462 83.5611 116.965 82.4019 110.003 83.5506Z" fill="#8EBEA5"/>
</mask>
<g mask="url(#mask1_0_67)">
<path id="Vector 9045" d="M132.836 106.649C134.755 93.2105 144.53 93.5959 149.036 95.8488L135.218 79.3271L84.1115 85.256L81.2656 126.995L131.936 142.199C131.699 138.879 130.749 121.258 132.836 106.649Z" fill="#6A9E83"/>
</g>
</g>
<g id="Mask group_3">
<mask id="mask2_0_67" style="mask-type:alpha" maskUnits="userSpaceOnUse" x="82" y="83" width="68" height="60">
<g id="Mask group_4">
<mask id="mask3_0_67" style="mask-type:alpha" maskUnits="userSpaceOnUse" x="82" y="83" width="84" height="95">
<path id="Vector 9046_2" d="M110.003 83.5505C98.2844 81.8631 86.6834 87.769 82.3476 90.933L102.386 177.765H162.383C169.883 150.478 163.428 122.726 157.438 107.457C155.635 102.861 152.723 98.7624 148.847 95.7033C133.462 83.561 116.965 82.4018 110.003 83.5505Z" fill="#8EBEA5"/>
</mask>
<g mask="url(#mask3_0_67)">
<path id="Vector 9045_2" d="M132.836 106.649C134.755 93.2104 144.53 93.5957 149.036 95.8487L135.218 79.327L84.1115 85.2559L81.2656 126.995L131.936 142.199C131.698 138.879 130.749 121.258 132.836 106.649Z" fill="#589173"/>
</g>
</g>
</mask>
<g mask="url(#mask2_0_67)">
<path id="Vector 9088" d="M95.728 106.649C94.648 98.0091 96.478 85.9491 97.528 80.9991L127.678 83.6991C126.958 96.6591 115.978 116.099 110.578 124.199L95.728 106.649Z" fill="#D5E3DB"/>
</g>
</g>
<path id="Vector 9074" d="M102.27 86.9827V76.4784L121.479 68.7752L121.347 76.564L121.108 83.6823C121.108 83.7043 121.101 83.7256 121.088 83.7439C117.891 88.4629 113.079 91.8501 107.559 93.2674L105.789 93.7217C104.006 94.1795 102.27 92.8329 102.27 90.9921V90.0006V86.9827Z" fill="#FEBB95"/>
<path id="Vector 9075" d="M82.438 12.4222L95.3548 29.4127L137.072 49.8024L158.49 45.5591C160.124 45.2354 160.909 43.3583 159.99 41.9684L133.288 1.54565C132.669 0.607801 131.55 0.128889 130.444 0.327768L83.8891 8.69719C82.1657 9.007 81.3784 11.0284 82.438 12.4222Z" fill="#53866B"/>
<path id="Vector 9076" d="M86.8007 37.8495C80.9885 47.8803 85.9414 53.9816 89.1444 55.7784L115.948 77.0188C126.332 82.6438 136.358 76.1534 138.448 67.0669C140.935 56.2495 131.174 38.2791 125.002 29.4123L100.628 26.6C98.4408 26.1703 92.613 27.8187 86.8007 37.8495Z" fill="#847163"/>
<ellipse id="Ellipse 4942" cx="126.241" cy="61.5985" rx="4.21856" ry="5.39038" transform="rotate(14.7959 126.241 61.5985)" fill="#FEBB95"/>
<ellipse id="Ellipse 4943" cx="107.572" cy="54.6076" rx="19.4522" ry="25.3114" transform="rotate(4.81434 107.572 54.6076)" fill="#FDD0B9"/>
<path id="Ellipse 4944" d="M95.0533 52.399C95.3841 52.444 95.672 52.6998 95.8601 53.1118C96.0474 53.5222 96.1268 54.0722 96.0465 54.6628C95.9662 55.2534 95.743 55.7622 95.453 56.1077C95.1618 56.4546 94.816 56.6243 94.4851 56.5793C94.1543 56.5344 93.8664 56.2786 93.6783 55.8665C93.4909 55.4562 93.4116 54.9062 93.4919 54.3156C93.5721 53.725 93.7954 53.2162 94.0854 52.8706C94.3766 52.5238 94.7224 52.3541 95.0533 52.399Z" fill="#1B1B1B" stroke="#1B1B1B" stroke-width="0.234364"/>
<path id="Ellipse 4945" d="M109.635 54.6766C109.966 54.7216 110.254 54.9774 110.442 55.3894C110.63 55.7998 110.709 56.3498 110.629 56.9403C110.548 57.531 110.325 58.0398 110.035 58.3853C109.744 58.7322 109.398 58.9018 109.067 58.8569C108.736 58.8119 108.449 58.5561 108.26 58.1441C108.073 57.7337 107.994 57.1838 108.074 56.5932C108.154 56.0025 108.378 55.4937 108.668 55.1482C108.959 54.8013 109.305 54.6316 109.635 54.6766Z" fill="#1B1B1B" stroke="#1B1B1B" stroke-width="0.234364"/>
<path id="Vector 9077" d="M101.291 57.2934C101.195 58.7012 100.646 60.7511 99.9252 61.5896" stroke="#FEAB89" stroke-width="1.17182" stroke-linecap="round"/>
<path id="Vector 9078" d="M96.4022 65.8572C97.425 67.062 100.52 69.0325 104.719 67.2763" stroke="#FEAB89" stroke-width="1.17182" stroke-linecap="round"/>
<path id="Vector 9079" d="M91.2539 48.6634C92.8945 47.96 95.824 47.7258 98.0505 48.6632" stroke="#847163" stroke-width="0.986915" stroke-linecap="round"/>
<path id="Vector 9080" d="M107.464 50.5649C109.243 50.4194 112.095 51.1283 113.908 52.7246" stroke="#847163" stroke-width="0.986915" stroke-linecap="round"/>
<path id="Vector 9081" d="M102.999 35.9046C97.6463 42.9101 90.9617 46.5147 88.207 47.4581L87.2695 42.4193L99.9252 28.0059L117.62 29.412L129.689 45.2316V57.4186C117.193 56.7938 110.008 48.7887 108.54 44.6524C108.478 44.4773 108.229 44.4771 108.191 44.659C107.941 45.8539 108.27 46.8863 108.684 47.5968C108.85 47.882 108.618 48.31 108.297 48.2367C102.816 46.9898 102.628 40.1847 103.369 36.0683C103.405 35.8667 103.123 35.7418 102.999 35.9046Z" fill="#847163"/>
<path id="Vector 9082" d="M136.605 51.9122C126.856 27.2571 103.261 27.2416 92.5977 30.2884L97.8954 17.7026C98.3577 16.6042 99.3639 15.8117 100.545 15.6559C127.632 12.0826 140.706 28.6517 144.501 38.9163C144.877 39.9349 144.662 41.0582 144.015 41.9302L136.605 51.9122Z" fill="#73A48A"/>
<path id="Vector 9083" d="M103.913 97.9092C100.949 94.5558 97.1801 93.1499 94.0029 92.6836C91.5873 92.329 90.666 95.0866 92.0112 97.1242C94.3976 100.739 97.2496 106.841 99.0509 117L109.434 111.149C109.237 109.687 108.419 103.008 103.913 97.9092Z" fill="#FEBB95"/>
<rect id="Rectangle 3465967" x="146.25" y="44.1348" width="2.59616" height="12.9808" fill="#53866B"/>
<path id="Rectangle 3465968" d="M145.205 58.406C145.307 57.1874 146.326 56.25 147.548 56.25C148.771 56.25 149.79 57.1874 149.892 58.406L150.421 64.7601C150.505 65.7692 149.709 66.6346 148.696 66.6346H146.401C145.388 66.6346 144.592 65.7692 144.676 64.7601L145.205 58.406Z" fill="#53866B"/>
<path id="Vector 9085" d="M130.125 134.1C132.43 138.727 134.581 141.803 137.664 151.252" stroke="url(#paint0_linear_0_67)" stroke-width="1.18578" stroke-linecap="round"/>
<path id="Vector 9086" d="M100.801 125.55C102.601 148.95 108.001 172.35 112.951 179.1L139.136 158.85C135.536 138.33 121.736 122.4 115.286 117L100.801 125.55Z" fill="#8EBEA5"/>
<path id="Vector 9084" d="M115.284 116.999L100.434 126L100.268 125.39C99.4824 122.509 99.0844 119.536 99.0844 116.55L109.434 111.149C112.011 112.834 114.286 115.822 115.284 116.999Z" fill="#EBF3EF"/>
<g id="Group 1707480207">
<rect id="Rectangle 3465958" x="76.9414" y="158.666" width="15.2337" height="20.6241" fill="#FEBB95"/>
<path id="Vector 9024" d="M17.4115 101.831C24.4425 86.9258 37.5278 84.215 43.1916 84.7228L80.4555 83.551L90.4726 93.335C93.797 96.5822 96.0811 100.744 97.0345 105.293L106.885 152.283C107.919 157.22 108.042 162.304 107.246 167.284C106.765 170.298 105.951 173.249 104.82 176.084L103.54 179.289H85.0256L86.631 177.775C88.2063 176.29 89.0094 174.162 88.8082 172.006L88.3595 167.199C88.3257 166.836 88.434 166.474 88.6616 166.19L90.4059 164.009C90.8423 163.464 90.9294 162.717 90.6304 162.086C90.2927 161.373 89.5355 160.957 88.7527 161.055L78.5374 162.333L80.4555 179.289H25.6977C16.5794 179.289 6.30891 177.598 2.28777 169.414C-0.133873 164.486 -0.481007 159.121 0.537298 154.798C3.23249 143.353 10.3806 116.737 17.4115 101.831Z" fill="#7FAF96"/>
<path id="Vector 9064" d="M86.2466 116.324C85.1795 126.522 83.1159 143.384 83.8748 161.028" stroke="#6B9F84" stroke-width="1.18578" stroke-linecap="round"/>
<path id="Vector 9025" d="M61.3621 117.59C58.0805 115.26 55.1827 108.317 54.3244 104.995L52.4495 100.191C58.8945 95.738 71.4564 89.5039 70.144 100.191C68.9109 110.232 64.7536 115.749 62.2793 117.578C62.0062 117.78 61.6391 117.787 61.3621 117.59Z" fill="#C8DDD2"/>
<path id="Vector 9026" d="M52.5662 101.95C52.2928 102.419 51.1601 98.5049 48.8164 79.0995L71.6669 76.9902C73.1512 83.7868 75.0418 98.083 70.7295 100.895C66.4172 103.708 62.5267 102.067 61.1205 100.895C59.9956 102.77 54.9489 102.38 52.5662 101.95Z" fill="#EBF3EF"/>
<path id="Vector 9027" d="M60.8864 92.3391C56.6679 91.4016 53.5821 83.9801 52.5665 78.746V71.9494H69.0892V80.7606C69.0892 81.7571 68.9747 82.7521 68.6656 83.6994C67.3941 87.5954 64.6127 93.1671 60.8864 92.3391Z" fill="#FEBB95"/>
<path id="Vector 9028" d="M60.5319 100.165C58.5574 101.719 55.36 101.594 53.9727 101.363C56.3203 104.493 59.9477 103.251 61.1921 102.113C61.2871 102.026 61.4324 102.018 61.533 102.098C64.0251 104.085 68.7543 103.651 69.4407 101.363C65.9552 102.003 63.6212 101.267 62.3567 100.209C61.88 99.8106 61.0201 99.7808 60.5319 100.165Z" fill="#C8DDD2"/>
<path id="Vector 9029" d="M82.6965 53.7298C82.6822 54.0558 82.6626 54.3755 82.6378 54.6929C82.6378 57.5714 81.6277 59.6275 87.9555 80.7393C94.4808 102.51 77.1694 108.082 67.7254 107.199C67.3631 107.165 67.1853 106.744 67.37 106.431C71.1686 99.9844 69.1372 81.5135 68.2689 73.3568H52.8008C51.8361 93.0814 55.6438 102.967 58.5723 106.332C58.8465 106.647 58.6733 107.19 58.2572 107.227C47.2186 108.196 41.5313 101.307 39.8215 96.5525C39.7479 96.3479 39.4098 96.3937 39.4119 96.6112C39.4594 101.448 41.2173 104.771 42.6918 106.514C42.9923 106.87 42.7171 107.507 42.2551 107.452C30.7656 106.085 29.3538 95.2473 30.156 89.6041C30.1712 89.4973 30.0939 89.4019 29.9861 89.3972C27.0426 89.2702 23.9074 92.3764 22.685 93.9809C22.4507 88.8249 24.6801 82.4005 26.6692 78.8644C30.1847 72.6146 32.5283 65.0369 32.294 56.8341C32.1065 50.2719 32.919 43.2409 33.3486 40.5456C38.077 19.1287 52.5936 17.3418 59.4872 19.1565C59.6395 19.1966 59.7916 19.1998 59.9458 19.168C63.2377 18.4898 72.8878 18.1385 79.6356 31.4054C84.4643 40.8991 83.0399 50.5383 82.6965 53.7298Z" fill="#4E4E4E"/>
<ellipse id="Ellipse 4935" cx="42.2537" cy="55.3103" rx="4.21856" ry="5.39038" fill="#FEBB95"/>
<ellipse id="Ellipse 4937" cx="62.1749" cy="51.7948" rx="19.4522" ry="25.3114" fill="#FDD0B9"/>
<ellipse id="Ellipse 4939" cx="56.7851" cy="53.787" rx="1.40619" ry="2.22646" fill="#1B1B1B"/>
<ellipse id="Ellipse 4942_2" cx="72.0195" cy="53.787" rx="1.40619" ry="2.22646" fill="#1B1B1B"/>
<path id="Vector 9063" d="M29.1758 115.021C30.8677 124.625 31.6672 137.076 31.6672 143.189" stroke="#6B9F84" stroke-width="1.18578" stroke-linecap="round"/>
<path id="Vector 9030" d="M65.1035 55.3105C64.9863 56.7167 65.2207 58.826 65.8066 59.7635" stroke="#FEAB89" stroke-width="1.17182" stroke-linecap="round"/>
<path id="Vector 9032" d="M57.4748 34.2897C54.929 44.9655 47.4376 50.2043 43.1705 51.8348C42.6745 52.0243 42.1437 51.7227 42.0354 51.2029C40.3652 43.1889 41.4903 27.9497 58.4239 24.2567C76.0481 20.4131 81.7041 39.2951 82.3291 49.2165C75.1822 50.1099 69.9508 44.6892 67.9533 41.4729C67.8597 41.3221 67.6341 41.37 67.6253 41.5472C67.5234 43.6089 68.744 45.4308 69.8296 46.5448C70.1126 46.8353 69.9275 47.3639 69.5225 47.3424C62.113 46.9498 58.8278 39.1795 57.9019 34.299C57.8623 34.0901 57.5241 34.0828 57.4748 34.2897Z" fill="#4E4E4E"/>
<path id="Vector 9033" d="M60.0664 65.1533C61.2773 66.1689 64.6599 67.5907 68.5035 65.1533" stroke="#FEAB89" stroke-width="1.17182" stroke-linecap="round"/>
<path id="Vector 9035" d="M52.5664 46.7902C54.207 46.0868 57.1428 45.6462 59.363 46.79" stroke="#4E4E4E" stroke-width="0.986915" stroke-linecap="round"/>
<rect id="Rectangle 3465959" x="37.3516" y="116.147" width="46.24" height="48.698" rx="2.84586" transform="rotate(16.1661 37.3516 116.147)" fill="#53866B"/>
<g id="Mask group_5">
<mask id="mask4_0_67" style="mask-type:alpha" maskUnits="userSpaceOnUse" x="24" y="117" width="57" height="58">
<rect id="Rectangle 3465960" x="37.3517" y="115.91" width="46.24" height="48.698" rx="4.7431" transform="rotate(16.1661 37.3517 115.91)" fill="#417A5C"/>
</mask>
<g mask="url(#mask4_0_67)">
<path id="Vector 9062" d="M76.6438 152.017C64.3117 158.42 41.5448 150.594 25.0625 154.388L25.774 160.198L71.0706 169.448L76.6438 152.017Z" fill="#41755A"/>
</g>
</g>
<path id="Vector 9038" d="M75.6493 162.181C57.2752 158.15 24.011 155.893 9.67573 155.268L8.62109 160.541L68.1497 176.829L75.6493 162.181Z" fill="#7FAF96"/>
<path id="Vector 9060" d="M66.918 160.556C69.4792 160.745 75.6532 161.82 78.5386 162.334L80.5544 179.291H68.6966L66.918 160.556Z" fill="#D5E3DB"/>
</g>
</g>
<defs>
<linearGradient id="paint0_linear_0_67" x1="127.503" y1="129.897" x2="140.558" y2="180.892" gradientUnits="userSpaceOnUse">
<stop stop-color="#6A9E83"/>
<stop offset="1" stop-color="#7EB599"/>
</linearGradient>
</defs>
</svg>
