<svg preserveAspectRatio="none" overflow="visible" style="display: block;" width="76.4694" height="90.7043" viewBox="0 0 76.4694 90.7043" fill="none" xmlns="http://www.w3.org/2000/svg">
<g id="Group 1707480178">
<circle id="Ellipse 1126" cx="19.7256" cy="31.8525" r="5.52347" fill="#FEBB95"/>
<circle id="Ellipse 1127" cx="56.8669" cy="31.8525" r="5.52347" fill="#FEBB95"/>
<path id="Rectangle 3465952" d="M2.18489 84.5C0.978237 84.5 -0.00838261 83.5184 0.0798241 82.315C1.15476 67.6494 12.9601 56.097 27.365 56.097H49.1045C63.5094 56.097 75.3148 67.6494 76.3897 82.315C76.4779 83.5184 75.4913 84.5 74.2846 84.5H2.18489Z" fill="#9FC7B3"/>
<path id="Rectangle 3465953" d="M30.5884 40.8033H45.8822V55.0047C45.8822 59.228 42.4586 62.6517 38.2353 62.6517C34.012 62.6517 30.5884 59.228 30.5884 55.0047V40.8033Z" fill="#FEAB89"/>
<ellipse id="Ellipse 1128" cx="38.2353" cy="32.0639" rx="18.5711" ry="21.8484" fill="#FDD0B9"/>
<path id="Rectangle 3465957" d="M32.821 67.8312C32.821 66.2282 34.1206 64.9287 35.7236 64.9287H41.5286C43.1316 64.9287 44.4312 66.2282 44.4312 67.8312V69.2825H32.821V67.8312Z" fill="#3D6852"/>
<g id="Mask group">
<mask id="mask0_0_221" style="mask-type:alpha" maskUnits="userSpaceOnUse" x="0" y="56" width="77" height="29">
<path id="Rectangle 3465960" d="M2.18489 84.5C0.978237 84.5 -0.00838261 83.5184 0.0798241 82.315C1.15476 67.6494 12.9601 56.097 27.365 56.097H49.1045C63.5094 56.097 75.3148 67.6494 76.3897 82.315C76.4779 83.5184 75.4913 84.5 74.2846 84.5H2.18489Z" fill="#9FC7B3"/>
</mask>
<g mask="url(#mask0_0_221)">
<rect id="Rectangle 3465949" width="5.77151" height="24.0046" transform="matrix(0.988412 0.151796 -0.11902 0.992892 49.7794 51.1025)" fill="#3D6852"/>
</g>
</g>
<rect id="Rectangle 3465956" x="20.7493" y="67.7043" width="36" height="23" rx="3.9664" fill="#4F8167"/>
<circle id="Ellipse 1132" cx="38.8655" cy="78.8711" r="7.96706" fill="#77A18B"/>
<circle id="Ellipse 1131" cx="38.8653" cy="78.8707" r="5.38949" fill="#3D6852"/>
<path id="Rectangle 3465958" d="M17.4797 77.3069C17.4797 75.1952 19.1916 73.4834 21.3032 73.4834C23.4149 73.4834 25.1267 75.1952 25.1267 77.3069V81.6766C25.1267 83.7882 23.4149 85.5 21.3032 85.5C19.1916 85.5 17.4797 83.7882 17.4797 81.6765V77.3069Z" fill="#FEBB95"/>
<path id="Rectangle 3465959" d="M52.4368 77.3069C52.4368 75.1952 54.1486 73.4834 56.2602 73.4834C58.3719 73.4834 60.0837 75.1952 60.0837 77.3069V81.6766C60.0837 83.7882 58.3719 85.5 56.2602 85.5C54.1486 85.5 52.4368 83.7882 52.4368 81.6765V77.3069Z" fill="#FEBB95"/>
<path id="Vector 8970" d="M23.4139 24.7812C25.6651 22.0747 27.0858 18.279 28.1505 16.2278C28.4345 15.6807 28.8868 15.2256 29.4895 15.0967C32.1699 14.5232 37.7586 15.9822 41.0959 18.207C44.5614 20.5174 48.6598 22.0188 53.3496 22.648C54.1004 22.7488 54.7643 23.2213 55.0242 23.9329C55.6782 25.7237 55.7631 26.7669 56.0174 27.8012C56.2047 28.5626 57.1469 28.6418 57.5069 27.9453C61.5549 20.1141 59.2481 5.36826 45.263 1.3725C31.5907 -2.53386 25.7095 2.72643 23.7491 6.82839C23.5131 7.32204 23.127 7.73332 22.6428 7.98803C14.985 12.016 15.0647 22.0338 17.7205 27.7015C18.2001 28.725 19.476 28.9525 20.2997 28.1786C21.4157 27.13 22.536 25.8366 23.4139 24.7812Z" fill="#4E4E4E"/>
</g>
</svg>
